<svg width="38" height="39" viewBox="0 0 38 39" fill="none" xmlns="http://www.w3.org/2000/svg">
<path d="M31.33 17.72H26.27V14.46C26.27 13.7379 26.4479 13.0888 26.849 12.6263C27.2385 12.1772 27.903 11.83 29.04 11.83H31.57H32.07V11.33V6.4V5.97795L31.6539 5.9071L31.57 6.4C31.6539 5.9071 31.6539 5.90709 31.6538 5.90708L31.6537 5.90705L31.6532 5.90697L31.6517 5.90671L31.6461 5.90577L31.6252 5.90229L31.546 5.88948C31.4773 5.87852 31.3773 5.86297 31.2506 5.84437C30.9975 5.80719 30.6376 5.75772 30.2085 5.70829C29.3524 5.60966 28.2116 5.51 27.09 5.51C24.6992 5.51 22.6681 6.23483 21.2339 7.66895C19.7993 9.10363 19.02 11.1902 19.02 13.8V17.71H14.43H13.93V18.21V24V24.5H14.43H19.02V37.5H5C2.51614 37.5 0.5 35.4839 0.5 33V5C0.5 2.51614 2.51614 0.5 5 0.5H32.99C35.4739 0.5 37.49 2.51614 37.49 5V33.01C37.49 35.4939 35.4739 37.51 32.99 37.51H26.27V24.51H30.44H30.869L30.9342 24.086L31.8242 18.296L31.9127 17.72H31.33Z" stroke="white"/>
</svg>
