<svg width="38" height="38" viewBox="0 0 38 38" fill="none" xmlns="http://www.w3.org/2000/svg">
<path d="M25.5 19.5C25.5 22.8137 22.8137 25.5 19.5 25.5C16.1863 25.5 13.5 22.8137 13.5 19.5C13.5 16.1863 16.1863 13.5 19.5 13.5C22.8137 13.5 25.5 16.1863 25.5 19.5Z" stroke="white"/>
<path d="M5 0.5H33C35.4839 0.5 37.5 2.51614 37.5 5V33C37.5 35.4839 35.4839 37.5 33 37.5H5C2.51614 37.5 0.5 35.4839 0.5 33V5C0.5 2.51614 2.51614 0.5 5 0.5ZM7.5 19.5C7.5 26.1161 12.8839 31.5 19.5 31.5C26.1161 31.5 31.5 26.1161 31.5 19.5C31.5 12.8839 26.1161 7.5 19.5 7.5C12.8839 7.5 7.5 12.8839 7.5 19.5ZM27.5 6.5C27.5 8.15614 28.8439 9.5 30.5 9.5C32.1561 9.5 33.5 8.15614 33.5 6.5C33.5 4.84386 32.1561 3.5 30.5 3.5C28.8439 3.5 27.5 4.84386 27.5 6.5Z" stroke="white"/>
</svg>
