<svg width="38" height="38" viewBox="0 0 38 38" fill="none" xmlns="http://www.w3.org/2000/svg">
<path d="M19.5 26C23.0899 26 26 23.0899 26 19.5C26 15.9101 23.0899 13 19.5 13C15.9101 13 13 15.9101 13 19.5C13 23.0899 15.9101 26 19.5 26Z" fill="white"/>
<path d="M33 0H5C2.24 0 0 2.24 0 5V33C0 35.76 2.24 38 5 38H33C35.76 38 38 35.76 38 33V5C38 2.24 35.76 0 33 0ZM19.5 31C13.16 31 8 25.84 8 19.5C8 13.16 13.16 8 19.5 8C25.84 8 31 13.16 31 19.5C31 25.84 25.84 31 19.5 31ZM30.5 9C29.12 9 28 7.88 28 6.5C28 5.12 29.12 4 30.5 4C31.88 4 33 5.12 33 6.5C33 7.88 31.88 9 30.5 9Z" fill="white"/>
</svg>
