<svg width="701" height="297" viewBox="0 0 701 297" fill="none" xmlns="http://www.w3.org/2000/svg">
<path d="M473.876 102.502C458.844 87.336 420.498 75.0497 401.233 66.7374C395.031 64.0395 382.297 58.3886 379.379 43.6232C375.146 22.1861 390.616 2.35308 419.768 2.31662C451.912 2.28016 472.162 25.1391 482.779 51.0606H485.734L478.145 2.46245H472.782C477.124 9.28004 470.629 21.3475 461.763 14.8581C416.083 -18.6466 357.451 9.35295 357.451 50.8418C357.451 75.5237 368.615 92.7682 402.839 105.237C437.719 117.96 469.717 126.018 471.395 156.861C474.935 222.558 359.603 227.297 358.764 147.272C357.633 147.272 355.809 147.272 354.751 147.272L346.833 206.735H352.051C350.774 199.48 354.24 180.485 380.728 198.094C407.363 215.813 444.287 212.459 467.528 194.23C492.594 174.616 503.868 132.835 473.84 102.466L473.876 102.502Z" fill="white"/>
<path d="M183.669 112.054V108.117H110.99V113.221C117.192 111.07 138.354 111.981 138.354 133.418V165.574C138.354 188.105 126.642 207.063 98.8763 206.698C55.6407 206.188 37.5803 170.496 37.5803 104.763C37.5803 52.5553 49.5841 2.75409 98.0736 2.75409C135.8 2.75409 159.151 40.1597 160.172 52.774H163.164L155.867 3.08221H150.504C151.744 7.56651 149.993 22.1131 137.952 13.7643C121.899 2.68117 107.523 0.493713 94.0967 0.493713C42.141 0.493713 0 40.8524 0 104.763C0 168.673 44.4396 209.651 99.3141 209.651C128.758 209.651 151.781 190.73 161.267 181.907C164.988 178.407 167.105 173.558 167.105 168.454V124.778C167.105 113.476 177.612 110.122 183.706 112.054H183.669Z" fill="white"/>
<path d="M317.681 186.209C313.266 195.032 302.539 204.62 292.36 204.62H211.435C222.599 202.141 233.983 183.22 238.179 165.611C244.235 140.236 254.707 105.492 263.536 100.424C265.506 99.2941 267.842 98.492 271.527 98.492C278.058 98.492 287.325 99.0389 288.602 101.19V93.4244C286.376 95.466 279.444 96.0129 273.241 96.1587H268.754C266.236 96.0493 263.755 95.3931 261.602 94.0442C250.182 86.9714 241.207 69.581 235.698 46.5033C230.48 24.5923 220.52 9.20711 207.932 5.37905C207.823 5.34259 290.025 5.37905 290.025 5.37905C302.284 5.37905 309.946 15.0403 314.835 23.6079C319.724 32.139 323.263 40.9253 324.03 45.4825H326.985L321.001 5.81654C320.782 4.32178 319.469 3.19159 317.936 3.19159H176.299L176.518 4.72281C176.518 4.72281 176.7 5.78009 176.919 7.20194C178.525 6.72799 181.516 7.09256 184.909 8.22275C205.013 15.9518 196.658 32.7952 209.866 70.0914C216.287 88.2838 227.269 95.1014 236.427 97.4347C237.558 97.7264 237.631 99.2211 236.573 99.6586C227.634 103.377 217.309 114.606 210.851 132.835C197.351 170.97 204.977 194.011 182.72 202.615C179.729 203.49 177.722 203.308 175.606 202.907C175.496 203.563 175.058 206.881 175.058 206.881H320.235C322.096 206.881 323.665 205.532 323.92 203.709L330.779 157.298H327.824C327.751 160.616 322.68 176.22 317.717 186.209H317.681Z" fill="white"/>
<path d="M700.489 203.016C675.059 210.818 661.814 199.954 650.102 153.069C637.478 102.575 604.751 97.3983 582.969 102.211C610.771 93.4973 635.909 87.2995 643.134 59.5552C650.796 30.0609 630.619 2.89996 573.336 2.89996L501.35 2.79059V5.74366C505.984 5.08742 518.097 7.20197 518.097 21.1288V186.829C518.097 200.245 509.231 204.292 501.35 202.834V206.334H562.427V202.943C555.823 203.782 548.636 200.829 548.636 188.032V143.736C548.636 124.742 556.444 114.497 564.981 109.757C588.66 96.5962 605.882 117.377 612.887 134.549C619.053 149.679 623.358 171.116 628.357 180.376C646.527 214.209 684.216 210.672 700.38 204.365C701.109 204.074 701.255 202.797 700.489 203.016V203.016ZM548.636 117.377L548.453 4.94159L565.784 4.79576C615.295 4.79576 624.124 33.8161 619.345 56.6021C616.937 68.0863 609.019 87.4818 586.508 97.0702C569.542 104.289 568.63 102.867 548.636 117.341V117.377Z" fill="white"/>
<path d="M122.519 295.509H110.004V275.604H122.519V276.697H112.85V284.572H120.914V285.629H112.85V292.192C112.85 292.884 112.85 293.249 112.85 293.322C112.923 293.796 113.069 294.088 113.361 294.233C113.544 294.343 113.945 294.416 114.492 294.416H122.519V295.509Z" fill="white"/>
<path d="M141.966 281.181H141.09C140.725 279.067 139.996 277.718 138.974 277.135C137.953 276.551 136.931 276.26 135.909 276.333C134.997 276.333 134.195 276.661 133.501 277.208C132.772 277.791 132.37 278.557 132.37 279.432C132.37 280.015 132.589 280.598 132.991 281.072C133.611 281.801 135.034 282.786 137.332 283.989C138.901 284.827 139.923 285.411 140.361 285.702C141.492 286.468 142.258 287.27 142.732 288.181C143.097 288.911 143.279 289.676 143.279 290.442C143.279 292.082 142.623 293.431 141.346 294.489C140.142 295.473 138.682 295.947 137.004 295.947C136.42 295.947 135.909 295.947 135.435 295.837C134.815 295.765 134.122 295.582 133.428 295.218C132.735 294.853 132.005 294.197 131.276 293.176C130.582 292.155 130.218 290.77 130.218 289.02H131.093C131.093 290.332 131.276 291.353 131.641 292.009C132.115 292.884 132.808 293.577 133.793 294.088C134.669 294.561 135.654 294.78 136.712 294.78C137.77 294.78 138.682 294.525 139.412 293.978C140.251 293.395 140.652 292.556 140.652 291.535C140.652 290.515 140.105 289.494 138.974 288.655C138.317 288.145 137.186 287.452 135.617 286.614C134.049 285.775 132.918 285.082 132.224 284.499C130.765 283.333 130.035 281.947 130.035 280.379C130.035 278.812 130.619 277.572 131.823 276.551C132.954 275.603 134.304 275.13 135.873 275.13C137.661 275.239 138.938 275.603 139.667 276.187C140.397 276.77 140.908 277.426 141.236 278.156C141.638 279.103 141.893 280.124 141.929 281.145L141.966 281.181Z" fill="white"/>
<path d="M158.749 276.916V295.509H155.94V276.916H149.3V275.64H165.536V276.916H158.749Z" fill="white"/>
<path d="M185.202 275.64H187.974V295.546H185.202V285.958H175.934V295.546H173.125V275.64H175.934V284.864H185.202V275.64Z" fill="white"/>
<path d="M210.668 295.509H198.154V275.604H210.668V276.697H201V284.572H209.063V285.629H201V292.192C201 292.884 201 293.249 201 293.322C201.073 293.796 201.219 294.088 201.51 294.233C201.693 294.343 202.094 294.416 202.642 294.416H210.668V295.509V295.509Z" fill="white"/>
<path d="M226.941 276.916V295.509H224.132V276.916H217.491V275.64H233.727V276.916H226.941Z" fill="white"/>
<path d="M244.345 295.509H241.535V275.604H244.345V295.509Z" fill="white"/>
<path d="M269.775 279.614L269.338 279.906C268.133 278.265 267.075 277.171 266.09 276.624C265.069 276.041 263.938 275.786 262.624 275.786C259.742 275.786 257.699 277.208 256.531 280.015C255.911 281.473 255.619 283.296 255.619 285.484C255.619 289.239 256.786 291.791 259.085 293.213C260.253 293.905 261.566 294.27 263.062 294.27C264.558 294.27 265.835 293.905 266.929 293.14C267.769 292.556 268.717 291.572 269.739 290.15L270.177 290.442C268.243 293.869 265.507 295.546 261.931 295.546C258.647 295.546 256.093 294.343 254.269 291.864C252.919 290.041 252.262 287.89 252.262 285.447C252.262 283.515 252.7 281.728 253.539 280.088C254.415 278.374 255.692 277.062 257.297 276.114C258.866 275.202 260.544 274.765 262.405 274.765C263.901 274.765 265.215 275.093 266.309 275.786C267.623 276.624 268.79 277.9 269.812 279.687L269.775 279.614Z" fill="white"/>
<path d="M302.175 282.749H302.795C303.087 283.661 303.123 284.973 302.831 286.614C302.539 288.291 301.737 289.822 300.314 291.244C301.7 292.884 303.087 293.723 304.473 293.723C305.86 293.723 306.772 292.994 307.173 291.572L307.72 291.973C307.027 294.671 305.495 296.02 303.16 296.02C301.518 296.02 299.803 295.072 298.015 293.14C295.863 295.035 293.746 296.02 291.63 296.02C290.207 296.02 289.003 295.655 288.018 294.926C286.924 294.124 286.376 293.03 286.376 291.645C286.376 289.02 288.383 286.614 292.469 284.463C291.667 282.713 291.265 281.254 291.265 280.088C291.265 278.411 291.886 277.135 293.126 276.26C294.075 275.567 295.169 275.239 296.41 275.239C297.504 275.239 298.417 275.567 299.183 276.187C299.985 276.879 300.387 277.754 300.387 278.812C300.387 280.015 299.839 281.109 298.781 282.093C298.125 282.676 297.067 283.333 295.571 284.135C296.811 286.359 298.125 288.364 299.475 290.223C300.861 288.728 301.737 287.27 302.102 285.921C302.466 284.572 302.539 283.515 302.284 282.859L302.175 282.749ZM297.249 292.265C295.352 289.676 293.929 287.416 292.907 285.374C290.536 286.723 289.368 288.364 289.368 290.223C289.368 291.317 289.733 292.265 290.426 293.03C291.119 293.796 292.032 294.16 293.126 294.16C294.294 294.16 295.644 293.504 297.249 292.228V292.265ZM294.987 283.114C297.395 281.947 298.599 280.489 298.599 278.702C298.599 278.01 298.38 277.426 297.979 276.989C297.541 276.515 297.03 276.296 296.337 276.296C295.607 276.296 294.987 276.551 294.513 277.062C294.002 277.572 293.746 278.192 293.746 278.921C293.746 279.796 294.148 281.218 294.987 283.15V283.114Z" fill="white"/>
<path d="M331.692 275.64C333.297 275.64 334.574 275.749 335.559 276.005C336.909 276.333 337.967 276.88 338.77 277.682C339.645 278.557 340.12 279.65 340.12 280.963C340.12 283.15 338.916 284.609 336.508 285.374C337.894 285.666 338.916 286.14 339.609 286.796C340.558 287.707 341.032 288.801 341.032 290.114C341.032 291.171 340.704 292.155 340.01 293.067C339.354 293.942 338.551 294.562 337.529 294.926C336.435 295.364 334.756 295.546 332.531 295.546H326V275.64H331.728H331.692ZM328.809 284.572C329.539 284.718 330.451 284.791 331.582 284.791C334.063 284.791 335.705 284.171 336.471 282.895C336.836 282.275 337.055 281.583 337.055 280.817C337.055 279.395 336.435 278.301 335.267 277.572C334.246 276.952 333.005 276.624 331.509 276.624C330.524 276.624 329.648 276.734 328.882 276.952V284.609L328.809 284.572ZM328.809 294.088C329.94 294.343 331.071 294.489 332.166 294.489C333.625 294.489 334.866 294.16 335.851 293.541C337.018 292.812 337.602 291.718 337.602 290.332C337.602 288.51 336.69 287.197 334.902 286.431C333.954 286.03 332.786 285.812 331.363 285.812C330.123 285.812 329.247 285.848 328.773 285.958V294.124L328.809 294.088Z" fill="white"/>
<path d="M361.865 295.509H349.351V275.604H361.865V276.697H352.196V284.572H360.26V285.629H352.196V292.192C352.196 292.884 352.196 293.249 352.196 293.322C352.269 293.796 352.415 294.088 352.707 294.233C352.89 294.343 353.291 294.416 353.838 294.416H361.865V295.509Z" fill="white"/>
<path d="M378.029 275.166H378.539L387.697 295.509H383.976L383.355 293.796C383.282 293.614 382.991 292.921 382.48 291.718L381.276 288.838H373.577L370.695 295.509H369.199L378.029 275.166V275.166ZM380.874 287.78L377.518 279.76L374.052 287.78H380.874Z" fill="white"/>
<path d="M411.011 287.343C411.011 289.166 410.865 290.588 410.574 291.535C410.136 292.884 409.333 293.978 408.093 294.817C406.925 295.619 405.356 296.02 403.349 296.02C399.482 296.02 397.037 294.634 396.016 291.864C395.687 290.989 395.542 289.384 395.542 286.978V275.676H398.351V287.89C398.351 290.223 398.679 291.9 399.336 292.884C400.175 294.16 401.598 294.817 403.532 294.817C404.699 294.817 405.794 294.561 406.779 294.087C407.91 293.541 408.713 292.775 409.114 291.791C409.479 290.916 409.661 289.421 409.661 287.306V275.749H410.975V287.416L411.011 287.343Z" fill="white"/>
<path d="M428.05 276.916V295.509H425.241V276.916H418.601V275.64H434.837V276.916H428.05Z" fill="white"/>
<path d="M451.219 287.088V295.509H448.409V287.343L440.747 275.64H444.031L450.635 285.775L457.02 275.676H458.552L451.255 287.051L451.219 287.088Z" fill="white"/>
<path d="M493.36 279.614L492.922 279.906C491.718 278.265 490.66 277.171 489.675 276.624C488.653 276.041 487.522 275.786 486.209 275.786C483.326 275.786 481.283 277.208 480.115 280.015C479.495 281.473 479.203 283.296 479.203 285.484C479.203 289.239 480.371 291.791 482.669 293.213C483.837 293.905 485.151 294.27 486.646 294.27C488.142 294.27 489.419 293.905 490.514 293.14C491.353 292.556 492.302 291.572 493.323 290.15L493.761 290.442C491.827 293.869 489.091 295.546 485.515 295.546C482.232 295.546 479.678 294.343 477.853 291.864C476.503 290.041 475.847 287.89 475.847 285.447C475.847 283.515 476.285 281.728 477.124 280.088C477.999 278.374 479.276 277.062 480.882 276.114C482.451 275.202 484.129 274.765 485.99 274.765C487.486 274.765 488.799 275.093 489.894 275.786C491.207 276.624 492.375 277.9 493.396 279.687L493.36 279.614Z" fill="white"/>
<path d="M514.084 295.509H501.533V275.64H504.342V291.973C504.342 292.812 504.415 293.358 504.561 293.65C504.743 293.978 505.181 294.197 505.874 294.27H514.485L514.084 295.546V295.509Z" fill="white"/>
<path d="M526.087 295.509H523.278V275.604H526.087V295.509Z" fill="white"/>
<path d="M536.449 275.64H537.945L550.095 290.551V275.64H551.372V295.838H550.825L537.69 279.833V295.509H536.413V275.604L536.449 275.64Z" fill="white"/>
<path d="M564.288 295.509H561.479V275.604H564.288V295.509Z" fill="white"/>
<path d="M589.755 279.614L589.317 279.906C588.113 278.265 587.055 277.171 586.07 276.624C585.048 276.041 583.917 275.786 582.604 275.786C579.721 275.786 577.678 277.208 576.511 280.015C575.891 281.473 575.599 283.296 575.599 285.484C575.599 289.239 576.766 291.791 579.065 293.213C580.232 293.905 581.546 294.27 583.042 294.27C584.538 294.27 585.815 293.905 586.909 293.14C587.748 292.556 588.697 291.572 589.719 290.15L590.156 290.442C588.223 293.869 585.486 295.546 581.911 295.546C578.627 295.546 576.073 294.343 574.249 291.864C572.899 290.041 572.242 287.89 572.242 285.447C572.242 283.515 572.68 281.728 573.519 280.088C574.395 278.374 575.672 277.062 577.277 276.114C578.846 275.202 580.524 274.765 582.385 274.765C583.881 274.765 585.194 275.093 586.289 275.786C587.602 276.624 588.77 277.9 589.792 279.687L589.755 279.614Z" fill="white"/>
</svg>
